<?xml version="1.0" encoding="UTF-8" standalone="no"?><!DOCTYPE svg PUBLIC "-//W3C//DTD SVG 1.1//EN" "http://www.w3.org/Graphics/SVG/1.1/DTD/svg11.dtd"><svg width="100%" height="100%" viewBox="0 0 3334 2500" version="1.1" xmlns="http://www.w3.org/2000/svg" xmlns:xlink="http://www.w3.org/1999/xlink" xml:space="preserve" xmlns:serif="http://www.serif.com/" style="fill-rule:evenodd;clip-rule:evenodd;stroke-linejoin:round;stroke-miterlimit:2;"><path d="M1619.78,1894.04c-364.437,-39.358 -633.953,-350.34 -613.141,-707.442l-683.167,-55.816l3.141,-36.517l683.166,55.816c40.39,-355.548 359.131,-618.393 725.203,-598.112l17.726,-206.617l-1352.34,-110.46l-150.665,1755.28l1352.34,110.46l17.737,-206.596Z" style="fill:#231f20;fill-rule:nonzero;"/><path d="M2385.55,1262.47l683.178,55.784l-2.057,24.042l75.83,-883.425l-1352.34,-110.46l-17.737,206.617c364.436,39.369 633.93,350.309 613.129,707.442" style="fill:#231f20;fill-rule:nonzero;"/><path d="M1657.22,1897.09l-17.737,206.596l1352.34,110.47l73.762,-859.394l-683.178,-55.784c-40.357,355.527 -359.098,618.393 -725.191,598.112" style="fill:#231f20;fill-rule:nonzero;"/><path d="M1820.68,1461.7c43.541,-34.235 67.634,-78.305 72.258,-132.241c3.41,-39.908 -4.072,-73.996 -22.545,-102.252c-18.462,-28.225 -46.053,-48.074 -82.782,-59.556c29.918,-10.605 53.167,-26.25 69.734,-46.975c16.578,-20.725 26.009,-44.439 28.294,-71.133c2.393,-28.087 -3.01,-55.266 -16.264,-81.495c-13.275,-26.281 -33.817,-47.862 -61.688,-64.721c-27.851,-16.817 -59.036,-26.693 -93.611,-29.503c-50.135,-4.109 -93.242,6.486 -129.344,31.668c-36.09,25.194 -61.071,62.831 -74.953,112.932l76.621,19.848c8.922,-36.643 24.299,-63.39 46.031,-80.27c21.776,-16.922 47.774,-24.116 78.018,-21.644c30.535,2.504 54.661,13.658 72.397,33.496c17.737,19.838 25.393,43.648 23.021,71.482c-3.021,35.144 -18.516,60.041 -46.442,74.714c-27.959,14.704 -58.494,20.704 -91.618,17.999c-3.184,-0.264 -7.309,-0.855 -12.474,-1.869l-14.337,65.893c22.36,-3.855 40.898,-5.165 55.582,-3.95c35.993,2.936 64.699,16.7 86.095,41.196c21.397,24.528 30.579,54.232 27.591,89.08c-3.141,36.517 -18.354,66.126 -45.674,88.774c-27.331,22.69 -59.285,32.503 -95.863,29.524c-30.839,-2.504 -56.177,-14.144 -75.982,-34.859c-19.837,-20.725 -32.376,-52.943 -37.606,-96.675l-78.635,3.782c0.758,51.834 18.137,95.418 52.073,130.731c33.946,35.323 78.732,55.224 134.335,59.767c61.624,5.059 114.217,-9.528 157.768,-43.743" style="fill:#231f20;fill-rule:nonzero;"/></svg>